<svg width="976" height="439" viewBox="0 0 976 439" fill="none" xmlns="http://www.w3.org/2000/svg">
<g clip-path="url(#clip0_19_2)">
<path d="M248 117C248 101.104 253.383 87.463 264.148 76.0778C274.912 64.6926 287.81 59 302.841 59C317.87 59 330.768 64.6926 341.533 76.0778C352.298 87.463 357.681 101.104 357.681 117C357.681 132.897 352.298 146.537 341.533 157.923C330.768 169.308 317.87 175 302.841 175C292.887 175 283.747 172.315 275.421 166.945C267.093 161.789 260.39 154.807 255.312 146C250.438 137.407 248 127.741 248 117ZM595.32 117C595.32 101.104 600.702 87.463 611.467 76.0778C622.232 64.6926 635.13 59 650.159 59C665.19 59 678.088 64.6926 688.853 76.0778C699.617 87.463 705 101.104 705 117C705 132.897 699.617 146.537 688.853 157.923C678.088 169.308 665.19 175 650.159 175C640.207 175 631.067 172.315 622.739 166.945C614.412 161.789 607.71 154.807 602.632 146C597.758 137.407 595.32 127.741 595.32 117Z" fill="black" fill-opacity="0.1"/>
<path d="M488.5 241C565.183 241 635.678 251.5 699.986 272.501C764.497 293.715 823.835 323.929 878 363.143V430C857.917 414.572 833.167 400.107 803.752 386.608C774.54 373.321 742.385 361.643 707.29 351.572C672.397 341.5 636.287 333.572 598.96 327.786C561.633 322.215 524.813 319.429 488.5 319.429C440.218 319.429 391.227 324.357 341.525 334.214C291.822 344.072 245.671 357.358 203.069 374.071C160.468 390.786 125.778 409.429 99 430V363.143C153.165 323.929 212.402 293.715 276.71 272.501C341.22 251.5 411.817 241 488.5 241Z" fill="black" fill-opacity="0.1"/>
<path d="M156 35.8398C262.54 52.4915 329.058 24.8848 349 9" stroke="black" stroke-opacity="0.1" stroke-width="25"/>
<path d="M784 35.8398C678.012 52.4915 611.838 24.8848 592 9" stroke="black" stroke-opacity="0.1" stroke-width="25"/>
</g>
<defs>
<clipPath id="clip0_19_2">
<rect width="976" height="439" fill="white"/>
</clipPath>
</defs>
</svg>
